<svg width="32" height="27" viewBox="0 0 32 27" fill="none" xmlns="http://www.w3.org/2000/svg">
<g clip-path="url(#clip0)">
<path d="M0 9.3001C0 9.0001 0 8.6001 0 8.1001C0 8.0001 0 7.9001 0 7.8001C0 7.7001 0 7.6001 0 7.5001C0 6.2001 0.5 4.9001 1.6 3.9001C2.8 2.7001 4.6 1.7001 7.1 1.1001C9.6 0.500098 12.4 0.100098 15.5 0.100098C17.5 0.100098 19.5 0.300098 21.4 0.600098C23.3 0.900098 25 1.4001 26.6 1.9001C28.2 2.5001 29.4 3.3001 30.4 4.3001C31.4 5.3001 31.8 6.4001 31.8 7.7001V8.0001C31.8 8.5001 31.8 8.9001 31.8 9.2001C31.8 9.5001 31.7 9.9001 31.6 10.4001C31.5 10.9001 31.2 11.2001 31 11.5001C30.3 12.2001 29.2 12.5001 27.8 12.3001C27 12.2001 26.4 12.1001 25.8 11.9001C25.3 11.7001 24.9 11.5001 24.6 11.3001C24.3 11.1001 24.1 10.8001 23.9 10.4001C23.7 10.0001 23.6 9.7001 23.6 9.4001C23.6 9.1001 23.6 8.7001 23.6 8.2001V7.9001C23.6 7.6001 23.3 7.3001 22.7 7.0001C22.1 6.7001 21.2 6.5001 20 6.3001C18.8 6.1001 17.5 6.0001 16 6.0001C14.3 6.0001 12.8 6.1001 11.4 6.4001C9.9 6.7001 9 7.1001 8.6 7.5001C8.4 7.6001 8.4 7.8001 8.4 7.9001V8.3001C8.4 8.8001 8.4 9.2001 8.3 9.5001C8.3 9.8001 8.2 10.1001 8 10.5001C7.8 10.9001 7.6 11.2001 7.3 11.4001C7 11.6001 6.6 11.8001 6.1 12.0001C5.6 12.2001 4.9 12.3001 4.2 12.4001C4 12.4001 3.8 12.4001 3.4 12.4001C2.3 12.4001 1.4 12.1001 0.8 11.5001C0.5 11.2001 0.3 10.9001 0.2 10.4001C0.1 9.9001 0 9.6001 0 9.3001ZM1.7 8.9001C1.7 9.0001 1.7 9.1001 1.7 9.2001C1.7 9.3001 1.7 9.3001 1.7 9.5001C1.7 9.6001 1.7 9.7001 1.7 9.8001C1.7 9.9001 1.7 9.9001 1.8 10.0001C1.9 10.1001 2 10.1001 2 10.2001C2 10.3001 2.1 10.3001 2.1 10.4001C2.4 10.7001 3 10.8001 4 10.7001C4.4 10.6001 4.8 10.6001 5.1 10.5001C5.4 10.4001 5.6 10.4001 5.8 10.2001C6 10.1001 6.1 10.0001 6.2 9.9001C6.3 9.8001 6.4 9.7001 6.4 9.5001C6.4 9.3001 6.6 9.1001 6.6 9.0001C6.6 8.9001 6.6 8.6001 6.6 8.3001V7.9001C6.6 7.3001 6.8 6.8001 7.3 6.3001C7.7 5.9001 8.4 5.5001 9.2 5.2001C10 4.9001 10.9 4.7001 11.8 4.6001C12.7 4.5001 13.5 4.4001 14.1 4.4001C14.7 4.4001 15.3 4.3001 15.9 4.3001C16.2 4.3001 16.6 4.3001 16.9 4.3001C17.3 4.3001 17.8 4.3001 18.4 4.4001C19 4.5001 19.7 4.5001 20.2 4.6001C20.8 4.7001 21.4 4.8001 22 5.0001C22.6 5.2001 23.2 5.4001 23.6 5.6001C24 5.8001 24.4 6.2001 24.7 6.6001C25 7.0001 25.1 7.4001 25.1 7.9001V8.2001C25.1 9.1001 25.1 9.6001 25.3 9.8001C25.6 10.2001 26.4 10.5001 27.7 10.6001C27.8 10.6001 28 10.6001 28.2 10.6001C28.8 10.6001 29.2 10.5001 29.5 10.2001C29.8 9.9001 29.9 9.1001 29.9 7.9001V7.5001C29.9 7.0001 29.8 6.5001 29.5 6.1001C29.2 5.7001 28.9 5.3001 28.5 4.9001C28.1 4.6001 27.6 4.3001 27.1 4.0001C26.6 3.7001 26.1 3.5001 25.6 3.3001C23 2.3001 19.6 1.7001 15.5 1.7001C12.6 1.7001 10 2.0001 7.8 2.6001C5.6 3.2001 3.9 4.0001 2.8 5.1001C2.1 5.8001 1.7 6.6001 1.8 7.5001C1.8 7.6001 1.8 7.7001 1.8 7.8001C1.8 7.9001 1.8 8.0001 1.8 8.1001L1.7 8.9001ZM5.2 21.5001C5.2 20.1001 5.4 18.6001 5.8 17.0001C6.2 15.4001 6.8 13.8001 7.7 12.4001C8.7 10.7001 9.9 9.4001 11.3 8.5001C12.7 7.6001 14.2 7.2001 15.9 7.2001C17.1 7.2001 18.2 7.4001 19.2 7.9001C20.2 8.3001 21.2 8.9001 21.9 9.7001C22.7 10.5001 23.4 11.3001 24 12.3001C24.6 13.3001 25.1 14.3001 25.5 15.4001C25.9 16.5001 26.2 17.6001 26.4 18.6001C26.6 19.7001 26.7 20.7001 26.7 21.7001C26.7 23.2001 26.4 24.3001 26 25.2001C25.6 26.0001 24.9 26.5001 24.2 26.5001H7.7C6.9 26.5001 6.3 26.1001 5.8 25.2001C5.4 24.2001 5.2 23.0001 5.2 21.5001ZM6.9 21.5001C6.9 22.2001 6.9 22.7001 7 23.2001C7.1 23.7001 7.2 24.0001 7.3 24.2001C7.4 24.4001 7.5 24.5001 7.6 24.5001H24C24.1 24.5001 24.2 24.4001 24.3 24.2001C24.4 24.0001 24.5 23.7001 24.6 23.2001C24.7 22.7001 24.7 22.2001 24.7 21.5001C24.7 20.3001 24.5 19.0001 24.2 17.5001C23.9 16.0001 23.3 14.6001 22.5 13.3001C22.2 12.7001 21.8 12.2001 21.4 11.7001C21 11.2001 20.5 10.8001 20 10.3001C19.4 9.8001 18.8 9.5001 18.1 9.2001C17.4 8.9001 16.6 8.8001 15.8 8.8001C15 8.8001 14.2 8.9001 13.5 9.2001C12.8 9.5001 12.1 9.8001 11.6 10.3001C11 10.8001 10.6 11.2001 10.2 11.7001C9.8 12.2001 9.4 12.7001 9.1 13.3001C8.3 14.6001 7.8 16.0001 7.4 17.5001C7 19.0001 6.9 20.3001 6.9 21.5001ZM10.7 17.9001C10.7 16.5001 11.2 15.3001 12.2 14.2001C13.2 13.1001 14.4 12.7001 15.9 12.7001C17.3 12.7001 18.5 13.2001 19.6 14.2001C20.7 15.2001 21.1 16.4001 21.1 17.8001C21.1 19.2001 20.6 20.4001 19.6 21.5001C18.6 22.5001 17.4 23.0001 15.9 23.0001C14.5 23.0001 13.2 22.5001 12.2 21.5001C11.2 20.5001 10.7 19.3001 10.7 17.9001ZM12.5 17.9001C12.5 18.8001 12.8 19.7001 13.5 20.3001C14.2 20.9001 15 21.3001 15.9 21.3001C16.8 21.3001 17.7 21.0001 18.3 20.3001C19 19.6001 19.3 18.8001 19.3 17.9001C19.3 16.9001 19 16.1001 18.3 15.5001C17.6 14.9001 16.8 14.5001 15.9 14.5001C14.9 14.5001 14.1 14.8001 13.5 15.5001C12.8 16.1001 12.5 16.9001 12.5 17.9001Z" fill="black"/>
</g>
<defs>
<clipPath id="clip0">
<rect width="31.8" height="26.3" fill="white"/>
</clipPath>
</defs>
</svg>
